<svg width="18" height="18" viewBox="0 0 18 18" fill="none" xmlns="http://www.w3.org/2000/svg">
<path d="M16.3873 0.333496H1.61303C1.27368 0.333496 0.948224 0.468304 0.708264 0.708264C0.468304 0.948224 0.333496 1.27368 0.333496 1.61303V16.3873C0.333496 16.7266 0.468304 17.0521 0.708264 17.2921C0.948224 17.532 1.27368 17.6668 1.61303 17.6668H16.3873C16.7266 17.6668 17.0521 17.532 17.2921 17.2921C17.532 17.0521 17.6668 16.7266 17.6668 16.3873V1.61303C17.6668 1.27368 17.532 0.948224 17.2921 0.708264C17.0521 0.468304 16.7266 0.333496 16.3873 0.333496ZM5.49979 15.0993H2.89377V6.82146H5.49979V15.0993ZM4.19498 5.67433C3.89937 5.67266 3.61088 5.58347 3.36592 5.418C3.12095 5.25254 2.93049 5.01821 2.81857 4.7446C2.70666 4.471 2.6783 4.17037 2.73707 3.88066C2.79585 3.59095 2.93913 3.32514 3.14883 3.11678C3.35853 2.90843 3.62525 2.76686 3.91533 2.70994C4.20541 2.65302 4.50586 2.68331 4.77874 2.79699C5.05162 2.91066 5.28472 3.10262 5.44861 3.34864C5.6125 3.59466 5.69984 3.88372 5.69961 4.17933C5.7024 4.37724 5.66531 4.57369 5.59056 4.75697C5.51581 4.94024 5.40493 5.10659 5.26452 5.2461C5.12411 5.38561 4.95705 5.49542 4.7733 5.56899C4.58955 5.64257 4.39287 5.67839 4.19498 5.67433ZM15.1053 15.1066H12.5005V10.5842C12.5005 9.25053 11.9336 8.83887 11.2017 8.83887C10.429 8.83887 9.67063 9.42146 9.67063 10.6179V15.1066H7.06461V6.82748H9.57072V7.97461H9.60442C9.856 7.46544 10.7371 6.59516 12.0816 6.59516C13.5357 6.59516 15.1066 7.45822 15.1066 9.986L15.1053 15.1066Z" fill="white"/>
</svg>
