<svg width="20" height="12" viewBox="0 0 20 12" fill="none" xmlns="http://www.w3.org/2000/svg">
<path d="M11.2812 6.18975C11.2812 9.33201 8.75578 11.8793 5.6407 11.8793C2.52561 11.8793 0 9.33144 0 6.18975C0 3.04806 2.52542 0.5 5.6407 0.5C8.75597 0.5 11.2812 3.04749 11.2812 6.18975Z" fill="white"/>
<path d="M17.4688 6.18996C17.4688 9.14772 16.2061 11.5464 14.6485 11.5464C13.0908 11.5464 11.8281 9.14772 11.8281 6.18996C11.8281 3.23219 13.0906 0.833496 14.6483 0.833496C16.2059 0.833496 17.4686 3.23142 17.4686 6.18996" fill="white"/>
<path d="M19.9998 6.18966C19.9998 8.83909 19.5557 10.9882 19.0078 10.9882C18.4599 10.9882 18.0161 8.83966 18.0161 6.18966C18.0161 3.53965 18.4601 1.39111 19.0078 1.39111C19.5555 1.39111 19.9998 3.53946 19.9998 6.18966Z" fill="white"/>
</svg>
