<svg width="18" height="17" viewBox="0 0 18 17" fill="none" xmlns="http://www.w3.org/2000/svg">
<path d="M8.70414 15.9255L8.6987 15.9226L8.67982 15.9124C8.66375 15.9037 8.64076 15.8911 8.61131 15.8746C8.55243 15.8418 8.4677 15.7937 8.3608 15.7308C8.14708 15.605 7.84431 15.4199 7.48212 15.1791C6.75895 14.6984 5.79268 13.9917 4.82383 13.0886C2.90651 11.3013 0.875 8.64592 0.875 5.375C0.875 2.93495 2.928 1 5.40625 1C6.86365 1 8.1686 1.66591 9 2.70966C9.8314 1.66591 11.1363 1 12.5938 1C15.072 1 17.125 2.93495 17.125 5.375C17.125 8.64592 15.0935 11.3013 13.1762 13.0886C12.2073 13.9917 11.241 14.6984 10.5179 15.1791C10.1557 15.4199 9.85292 15.605 9.6392 15.7308C9.5323 15.7937 9.44757 15.8418 9.38869 15.8746C9.35924 15.8911 9.33625 15.9037 9.32018 15.9124L9.3013 15.9226L9.29586 15.9255L9.29356 15.9268C9.11026 16.0241 8.88974 16.0241 8.70644 15.9268L8.70414 15.9255Z" fill="#FF5500" stroke="black" stroke-linejoin="round"/>
</svg>
